<svg xmlns="http://www.w3.org/2000/svg" xmlns:xlink="http://www.w3.org/1999/xlink" viewBox="0 0 130.94 36.22"><defs><style>.cls-1,.cls-2{fill:none;}.cls-2{clip-rule:evenodd;}.cls-3{clip-path:url(#clip-path);}.cls-4{fill:#EC0027;}.cls-5{clip-path:url(#clip-path-2);}.cls-6{clip-path:url(#clip-path-3);}.cls-7{clip-path:url(#clip-path-4);}.cls-8{clip-path:url(#clip-path-6);}.cls-9{clip-path:url(#clip-path-7);}.cls-10{clip-path:url(#clip-path-8);}.cls-11{clip-path:url(#clip-path-9);}.cls-12{clip-path:url(#clip-path-10);}</style><clipPath id="clip-path" transform="translate(1 1)"><rect class="cls-1" x="54.68" y="0.22" width="1" height="34"/></clipPath><clipPath id="clip-path-2" transform="translate(1 1)"><path class="cls-2" d="M27,30.24H19.08V27.9h-2.9C5.11,28,5.71,29.72,6.34,30.39A16.94,16.94,0,0,0,29.81,27.9H27Z"/></clipPath><clipPath id="clip-path-3" transform="translate(1 1)"><rect class="cls-1" x="-571.32" y="-442.78" width="988" height="696"/></clipPath><clipPath id="clip-path-4" transform="translate(1 1)"><path class="cls-2" d="M.43,21a18.24,18.24,0,0,0,1.41,3.87H19.22V18.31H8.78C1.74,18.46.5,20,.43,21Zm26.74-2.56v6.43H32a17.86,17.86,0,0,0,.86-2Z"/></clipPath><clipPath id="clip-path-6" transform="translate(1 1)"><path class="cls-2" d="M.79,11.74c-.06.18-.12.36-.17.53v0A18.78,18.78,0,0,0,0,15.69H19.06V9.15H9.74C3,9.29,1.25,10.87.79,11.74M31.71,9.15H27.5l5.76,4.62a18.09,18.09,0,0,0-1.55-4.62"/></clipPath><clipPath id="clip-path-7" transform="translate(1 1)"><rect class="cls-1" y="9.15" width="33.26" height="6.54"/></clipPath><clipPath id="clip-path-8" transform="translate(1 1)"><path class="cls-2" d="M19,2.56l4.7,3.54h6.16a17.28,17.28,0,0,0-26.35,0H19Z"/></clipPath><clipPath id="clip-path-9" transform="translate(1 1)"><rect class="cls-1" x="3.46" width="26.35" height="6.1"/></clipPath><clipPath id="clip-path-10" transform="translate(1 1)"><polygon class="cls-2" points="37.42 17.98 19.87 4.36 19.87 29.15 25.93 29.15 25.93 16.6 43.63 30.08 43.63 5 37.42 5 37.42 17.98"/></clipPath></defs><g id="Layer_2" data-name="Layer 2"><g id="Layer_1-2" data-name="Layer 1"><g class="cls-3"><rect class="cls-4" x="54.68" y="0.22" width="3" height="36"/></g><g class="cls-5"><g class="cls-6"><rect class="cls-4" x="5.11" y="27.9" width="26.7" height="8.1"/></g></g><g class="cls-7"><g class="cls-6"><rect class="cls-4" x="0.43" y="18.31" width="34.4" height="8.54"/></g></g><g class="cls-8"><g class="cls-9"><rect class="cls-4" y="9.15" width="35.26" height="8.54"/></g></g><g class="cls-10"><g class="cls-11"><rect class="cls-4" x="3.46" width="28.35" height="8.1"/></g></g><g class="cls-12"><g class="cls-6"><rect class="cls-4" x="19.87" y="4.36" width="25.76" height="27.72"/></g></g><path class="cls-4" d="M65.64,30l1.44-.29c1-.22,1.37-.41,1.37-2.44V9.77c0-2.07-.33-2.25-1.37-2.48L65.64,7V5.7H77V7l-1.74.33c-1.11.22-1.37.37-1.37,2.44V26c0,3.29.15,3.51,3.74,3.51,3.18,0,4-.44,5-2a18.92,18.92,0,0,0,2.44-4.85h1.52l-.56,8.7H65.64Z" transform="translate(1 1)"/><path class="cls-4" d="M88.13,30.05l1.3-.33c1-.26,1.18-.48,1.18-2v-11c0-1.55-.18-1.62-1.18-2.22L88.1,13.7V12.62l7.21-.81.48.3a40.69,40.69,0,0,0-.29,4.77v10.8c0,1.63.18,1.82,1.18,2l1.26.33v1.3H88.13ZM89.84,6.18a3,3,0,0,1,6.06,0,3,3,0,0,1-6.06,0Z" transform="translate(1 1)"/><path class="cls-4" d="M99.42,30.05l1.29-.33c1-.26,1.19-.48,1.19-2V14.62H99.23V13.4l2.67-1.11v-1.7c0-4.78,3.55-7.7,8.91-7.7,2.71,0,4.15,1,4.15,2.74a2,2,0,0,1-2.07,2,2.26,2.26,0,0,1-2.59-2.19c-.08-.85-.23-1-.74-1-1.34,0-2.78.88-2.78,3.84v4h4.4l-.59,2.33h-3.81v13c0,1.74.15,2,1.11,2.15l1.74.33v1.3H99.42Z" transform="translate(1 1)"/><path class="cls-4" d="M112.3,21.69a9.49,9.49,0,0,1,9.54-9.92c5,0,8,2.59,8.1,9.55H117.25c.19,5.55,2.67,7.58,6.44,7.58a12,12,0,0,0,5.77-1.48V29a11.41,11.41,0,0,1-7.62,2.77C115.44,31.79,112.3,27.83,112.3,21.69Zm5-2.11,7.55-.37c0-4.33-.63-5.74-3.22-5.74C119.33,13.47,117.51,15.21,117.29,19.58Z" transform="translate(1 1)"/></g></g></svg>