<?xml version="1.0" encoding="UTF-8"?><svg id="Layer_2" xmlns="http://www.w3.org/2000/svg" viewBox="0 0 132.86 18.59"><defs><style>.cls-1{fill:#f70f31;}.cls-2{fill:#fff;}.cls-3{fill:#173d5e;}</style></defs><g id="Layer_1-2"><g><path class="cls-3" d="M125.31,18.59h-59.31c-2.27,0-3.85-2.24-3.1-4.38l4.25-12.02c.46-1.31,1.71-2.19,3.1-2.19h59.31c2.27,0,3.85,2.24,3.1,4.38l-4.25,12.02c-.46,1.31-1.71,2.19-3.1,2.19"/><path class="cls-1" d="M30.02,3.38h-6.17c-2.27,0-4.79,1.84-5.61,4.11l-3.89,10.7h2.47l1.05-2.88,.9-2.47,1.95-5.35c.33-.91,1.34-1.64,2.25-1.64h6.17c.91,0,1.38,.74,1.05,1.64l-1.35,3.7c-.33,.91-1.34,1.65-2.24,1.65h-5.55l-.9,2.47h5.55c2.27,0,4.78-1.85,5.61-4.11l1.35-3.7c.83-2.27-.35-4.11-2.62-4.11"/><path class="cls-1" d="M13.58,8.23s-.02,0-.03,0c-.03,0-.07-.02-.1-.02-.22-.05-.46-.08-.72-.08H5.53c-.62,0-.95-.51-.72-1.13,.23-.62,.92-1.13,1.54-1.13h10.18l.9-2.47H7.25c-1.98,0-4.19,1.61-4.91,3.6-.62,1.71,.05,3.14,1.51,3.5h.03s.06,.02,.1,.03c.22,.05,.46,.08,.72,.08h7.2c.62,0,.95,.51,.72,1.13-.23,.62-.92,1.13-1.54,1.13H.9l-.9,2.47H10.18c1.98,0,4.19-1.61,4.91-3.6,.62-1.71-.05-3.14-1.51-3.5"/><path class="cls-1" d="M46.15,3.39h-6.22c-2.27,0-4.78,1.85-5.61,4.11l-1.35,3.7c-.82,2.27,.35,4.11,2.62,4.11h6.22c2.27,0,4.79-1.84,5.61-4.11l1.35-3.7c.83-2.27-.35-4.11-2.62-4.11m-1.2,7.82c-.33,.91-1.34,1.65-2.24,1.65h-6.22c-.91,0-1.38-.74-1.05-1.65l1.35-3.7c.33-.91,1.34-1.64,2.24-1.64h6.22c.91,0,1.38,.74,1.05,1.64l-1.35,3.7Z"/><path class="cls-1" d="M63.73,3.39h-7.71c-2.27,0-4.79,1.84-5.61,4.11l-2.84,7.8h2.47l.89-2.45,1.95-5.35c.33-.91,1.34-1.65,2.24-1.65h7.72l.9-2.47Z"/><path class="cls-2" d="M79.63,8.41s-.02,0-.03,0c-.03,0-.06-.02-.1-.02-.22-.05-.46-.08-.72-.08h-7.2c-.62,0-.95-.51-.72-1.13,.23-.62,.92-1.13,1.54-1.13h10.18l.9-2.47h-10.18c-1.98,0-4.19,1.61-4.91,3.6-.62,1.71,.05,3.14,1.51,3.5h.03s.06,.02,.1,.03c.22,.05,.46,.08,.72,.08h7.2c.62,0,.95,.51,.72,1.13-.23,.62-.92,1.13-1.54,1.13h-10.18l-.9,2.47h10.18c1.98,0,4.19-1.61,4.91-3.6,.62-1.71-.05-3.14-1.51-3.5"/><path class="cls-2" d="M112.2,3.57h-6.22c-2.27,0-4.78,1.85-5.61,4.11l-1.35,3.7c-.82,2.27,.35,4.11,2.62,4.11h6.22c2.27,0,4.79-1.84,5.61-4.11l1.35-3.7c.83-2.27-.35-4.11-2.62-4.11m-1.2,7.82c-.33,.91-1.34,1.65-2.24,1.65h-6.22c-.91,0-1.38-.74-1.05-1.65l1.35-3.7c.33-.91,1.34-1.64,2.24-1.64h6.22c.91,0,1.38,.74,1.05,1.64l-1.35,3.7Z"/><path class="cls-2" d="M129.78,3.57h-7.71c-2.27,0-4.79,1.84-5.61,4.11l-2.84,7.8h2.47l.89-2.45,1.95-5.35c.33-.91,1.34-1.65,2.24-1.65h7.72l.9-2.47Z"/><polygon class="cls-2" points="95.88 6.81 95.88 6.81 98.18 5.12 100.3 3.57 96.84 3.57 90.45 8.26 87.02 8.26 87.02 8.25 86.53 8.25 88.19 3.68 85.75 3.68 81.46 15.45 83.91 15.45 85.64 10.7 86.13 10.7 86.13 10.7 87.81 10.7 89.09 10.7 89.52 10.7 91.56 13.92 91.56 13.92 92.49 15.38 95.95 15.38 92.21 9.5 95.88 6.81"/></g></g></svg>